<?xml version="1.0" standalone="no"?><!-- Generator: Adobe Fireworks CS6, Export SVG Extension by Aaron Beall (http://fireworks.abeall.com) . Version: 0.6.1  --><!DOCTYPE svg PUBLIC "-//W3C//DTD SVG 1.1//EN" "http://www.w3.org/Graphics/SVG/1.1/DTD/svg11.dtd"><svg id="sprite-Page%201" viewBox="0 0 470 109" style="background-color:#ffffff00" version="1.1"	xmlns="http://www.w3.org/2000/svg" xmlns:xlink="http://www.w3.org/1999/xlink" xml:space="preserve"	x="0px" y="0px" width="470px" height="109px">	<g id="Layer_1_1">		<g>			<path d="M 43.5437 6.1628 C 39.994 3.0278 36.7921 0.2726 31.8384 0 L 0 0 L 35.7784 90.0516 L 143.5651 90.0516 C 143.5651 90.0516 47.4789 9.6389 43.5437 6.1628 L 43.5437 6.1628 Z" fill="#7995b9"/>			<path d="M 44.9649 96.8491 L 40.143 108.1446 L 38.3975 108.1446 L 45.003 93.123 L 51.438 108.1446 L 49.6724 108.1446 L 44.9649 96.8491 Z" fill="#ffffff"/>			<path d="M 55.313 104.7404 L 59.3943 93.8067 L 61.1207 93.8067 L 55.313 109 L 49.5048 93.8067 L 51.2318 93.8067 L 55.313 104.7404 Z" fill="#ffffff"/>			<path d="M 64.0451 108.1441 L 62.4501 108.1441 L 62.4501 93.8067 L 64.0451 93.8067 L 64.0451 108.1441 Z" fill="#ffffff"/>			<path d="M 71.9228 96.8491 L 67.1009 108.1446 L 65.3554 108.1446 L 71.9604 93.123 L 78.3959 108.1446 L 76.6303 108.1446 L 71.9228 96.8491 Z" fill="#ffffff"/>			<path d="M 81.9676 108.1441 L 80.3725 108.1441 L 80.3725 95.2905 L 76.918 95.2905 L 76.918 93.8071 L 85.4606 93.8071 L 85.4606 95.2905 L 81.9676 95.2905 L 81.9676 108.1441 Z" fill="#ffffff"/>			<path d="M 88.4597 108.1441 L 86.8646 108.1441 L 86.8646 93.8067 L 88.4597 93.8067 L 88.4597 108.1441 Z" fill="#ffffff"/>			<path d="M 105.2961 100.9947 C 105.2961 105.1212 101.9184 108.3912 97.8362 108.3912 C 93.755 108.3912 90.3762 105.1212 90.3762 100.9947 C 90.3762 96.8873 93.755 93.56 97.8362 93.56 C 101.9184 93.56 105.2961 96.8873 105.2961 100.9947 L 105.2961 100.9947 ZM 91.9713 100.9756 C 91.9713 104.208 94.5908 106.9079 97.8362 106.9079 C 101.083 106.9079 103.7025 104.208 103.7025 100.9756 C 103.7025 97.7242 101.1211 95.0433 97.8362 95.0433 C 94.5527 95.0433 91.9713 97.7242 91.9713 100.9756 L 91.9713 100.9756 Z" fill="#ffffff"/>			<path d="M 107.2903 93.1984 L 118.4519 104.9117 L 118.4519 93.8067 L 120.046 93.8067 L 120.046 108.7906 L 108.8849 97.0963 L 108.8849 108.1441 L 107.2903 108.1441 L 107.2903 93.1984 Z" fill="#ffffff"/>			<path d="M 52.4844 86.2746 L 50.6431 76.5765 L 50.6055 76.5765 L 45.9927 86.8638 L 41.3985 76.5765 L 41.3604 76.5765 L 39.5196 86.2746 L 37.8865 86.2746 L 40.7913 71.1194 L 45.9927 83.1553 L 51.2127 71.1194 L 54.1171 86.2746 L 52.4844 86.2746 Z" fill="#ffffff"/>			<path d="M 66.7208 86.2746 L 62.0133 74.9792 L 57.1919 86.2746 L 55.4449 86.2746 L 62.0514 71.2525 L 68.4859 86.2746 L 66.7208 86.2746 Z" fill="#ffffff"/>			<path d="M 80.5024 84.1257 C 79.1927 85.6472 77.1999 86.5212 75.2067 86.5212 C 71.1826 86.5212 67.842 83.1748 67.842 79.1438 C 67.842 75.0364 71.1826 71.69 75.302 71.69 C 77.8072 71.69 79.838 72.8127 81.3569 74.7898 L 80.1995 75.8733 C 79.0026 74.1805 77.39 73.1733 75.2829 73.1733 C 72.018 73.1733 69.4356 75.9305 69.4356 79.1629 C 69.4356 80.6844 70.0434 82.1295 71.1069 83.213 C 72.1504 84.2593 73.6688 85.0389 75.1686 85.0389 C 77.6552 85.0389 80.2743 83.213 80.2743 80.5508 L 76.023 80.5508 L 76.023 79.0675 L 81.9832 79.0675 C 82.0213 81.0069 81.8122 82.6047 80.5024 84.1257 L 80.5024 84.1257 Z" fill="#ffffff"/>			<path d="M 96.8274 86.9211 L 85.6658 75.2268 L 85.6658 86.2746 L 84.0717 86.2746 L 84.0717 71.3294 L 95.2328 83.0422 L 95.2328 71.9377 L 96.8274 71.9377 L 96.8274 86.9211 Z" fill="#ffffff"/>			<path d="M 109.7169 80.9124 C 109.7169 82.4716 109.6026 83.7078 108.4643 84.8862 C 107.4765 85.9516 106.0529 86.5217 104.6112 86.5217 C 103.2623 86.5217 101.8769 86.0089 100.9091 85.0575 C 99.6565 83.86 99.5045 82.5479 99.5045 80.9124 L 99.5045 71.9372 L 101.0991 71.9372 L 101.0991 80.4754 C 101.0991 81.5398 101.0615 82.7564 101.7254 83.6696 C 102.3522 84.5446 103.5667 85.0384 104.6112 85.0384 C 105.6357 85.0384 106.7554 84.5637 107.4198 83.7645 C 108.179 82.8518 108.1218 81.5966 108.1218 80.4754 L 108.1218 71.9372 L 109.7169 71.9372 L 109.7169 80.9124 Z" fill="#ffffff"/>			<path d="M 115.7513 86.5217 C 113.4552 86.5217 111.7463 85.0384 111.29 82.8142 L 112.8469 82.3762 C 113.056 83.8409 114.1758 85.0384 115.7137 85.0384 C 117.2511 85.0384 118.6561 83.8595 118.6561 82.2431 C 118.6561 80.5704 117.3464 80.0002 116.0175 79.3904 L 115.144 79.0107 C 113.4732 78.2502 112.0316 77.3943 112.0316 75.3403 C 112.0316 73.1166 113.9105 71.6905 116.0366 71.6905 C 117.6307 71.6905 118.9781 72.5073 119.7377 73.9143 L 118.4661 74.732 C 117.8964 73.744 117.2135 73.1738 115.9985 73.1738 C 114.7258 73.1738 113.6252 74.0855 113.6252 75.3976 C 113.6252 76.6343 114.8968 77.2049 115.8656 77.6419 L 116.8139 78.0608 C 118.6752 78.8776 120.2497 79.8094 120.2497 82.0918 C 120.2497 84.6014 118.2379 86.5217 115.7513 86.5217 L 115.7513 86.5217 Z" fill="#ffffff"/>		</g>		<path d="M 178.7373 46.8402 L 162.7983 27.2488 L 178.7373 7.6588 L 178.7373 7.6588 " stroke="#ffffff" stroke-width="1" fill="none"/>		<path d="M 217.2041 7.6588 L 233.1431 27.2498 L 217.2041 46.8402 L 217.2041 46.8402 " stroke="#ffffff" stroke-width="1" fill="none"/>		<path d="M 299.1365 19.266 L 279.5794 35.233 L 260.0223 19.266 L 260.0223 19.266 " stroke="#ffffff" stroke-width="1" fill="none"/>		<path d="M 388.391 42.9765 L 388.391 11.5235 L 388.391 11.5235 M 372.6924 27.2498 L 404.0906 27.2498 L 404.0906 27.2498 " stroke="#ffffff" stroke-width="1" fill="none"/>		<path d="M 400.0475 76.554 L 403.9382 81.7493 L 400.0475 86.945 L 400.0475 86.945 " stroke="#ffffff" stroke-width="1" fill="none"/>		<path d="M 375.4712 86.945 L 371.5815 81.7493 L 375.4712 76.554 L 375.4712 76.554 " stroke="#ffffff" stroke-width="1" fill="none"/>		<path d="M 314.4286 35.233 L 333.9857 19.266 L 353.5418 35.233 L 353.5418 35.233 " stroke="#ffffff" stroke-width="1" fill="none"/>		<path d="M 178.7373 101.3402 L 162.7983 81.7493 L 178.7373 62.1588 L 178.7373 62.1588 " stroke="#929497" stroke-width="2" fill="none"/>		<path d="M 217.2041 62.1588 L 233.1431 81.7503 L 217.2041 101.3402 L 217.2041 101.3402 " stroke="#929497" stroke-width="2" fill="none"/>		<path d="M 299.1365 73.766 L 279.5794 89.733 L 260.0223 73.766 L 260.0223 73.766 " stroke="#929497" stroke-width="2" fill="none"/>		<path d="M 314.4286 89.733 L 333.9857 73.766 L 353.5418 89.733 L 353.5418 89.733 " stroke="#929497" stroke-width="2" fill="none"/>		<g>			<path d="M 442.2756 36.5333 L 439.9365 24.1711 L 439.8876 24.1711 L 434.0271 37.2845 L 428.1911 24.1711 L 428.1432 24.1711 L 425.8031 36.5333 L 423.7298 36.5333 L 427.4192 17.214 L 434.0271 32.5581 L 440.6595 17.214 L 444.3499 36.5333 L 442.2756 36.5333 Z" fill="#ffffff"/>			<path d="M 459.6215 36.5333 L 453.6409 22.1347 L 447.5146 36.5333 L 445.2957 36.5333 L 453.6888 17.3838 L 461.8649 36.5333 L 459.6215 36.5333 Z" fill="#ffffff"/>		</g>	</g></svg>